<svg width="240" height="80" viewBox="0 0 240 80" fill="none" xmlns="http://www.w3.org/2000/svg">
<path d="M62.2381 60.2493C60.9493 59.5129 57.267 57.4876 59.2922 52.5166C53.4006 52.5166 46.036 51.7801 42.722 41.1015C39.4079 30.4229 45.1155 17.5349 51.5595 17.5349C58.0034 17.5349 57.8193 24.7154 56.1623 27.6612C54.5053 30.607 54.8735 39.6286 63.711 39.2604C72.5484 38.8921 72.5484 27.1088 65.1839 20.6649C57.8193 14.2209 46.5884 15.6938 40.3285 18.6396C34.0686 21.5854 24.1265 29.6864 25.7835 43.6791C27.4405 57.6717 37.7509 63.5634 46.036 63.9316C54.3212 64.2999 59.2922 63.1952 62.2381 60.2493Z" fill="#B37FEB"/>
<path d="M101.588 63.5634H76.3951V61.548H81.4336V19.2246H76.3951V17.2092H96.5491V29.2009C97.1537 25.909 98.2286 23.2219 99.7738 21.1393C101.386 19.0567 103.133 17.6795 105.014 17.0077C106.962 16.3359 108.809 16 110.556 16C112.37 16 114.083 16.3359 115.695 17.0077C117.375 17.6123 118.618 18.8887 119.424 20.837C120.23 22.718 120.264 24.6326 119.525 26.5809C118.786 28.4619 117.476 29.8055 115.595 30.6116C113.781 31.4178 112.101 31.5186 110.556 30.914C109.011 30.3093 107.903 29.5032 107.231 28.4955C106.559 27.4206 106.089 26.4129 105.82 25.4724C105.148 22.9867 104.241 21.7439 103.099 21.7439C101.823 21.7439 100.412 23.9608 98.8668 28.3947C97.3217 32.7614 96.5491 37.3968 96.5491 42.301V61.548H101.588V63.5634Z" fill="#B37FEB"/>
<path d="M209.754 61.548H214.792V63.5634H189.6V61.548H194.638V33.3324C194.638 28.5627 193.933 25.1701 192.522 23.1547C191.111 21.1393 188.995 20.1316 186.174 20.1316C184.561 20.1316 182.882 20.6018 181.135 21.5424C179.389 22.4829 177.944 23.7929 176.802 25.4724C177.608 27.8909 178.011 31.2499 178.011 35.5494V61.548H183.05V63.5634H156.85V61.548H162.896V33.3324C162.896 28.5627 162.191 25.1701 160.78 23.1547C159.369 21.1393 157.253 20.1316 154.431 20.1316C150.602 20.1316 147.545 22.147 145.261 26.1778V61.548H150.3V63.5634H125.107V61.548H130.146V19.2246H125.107V17.2092H145.261V22.4493C146.538 20.7026 148.519 19.2246 151.207 18.0154C153.961 16.739 156.917 16.1008 160.074 16.1008C168.069 16.1008 173.275 18.3513 175.694 22.8524C177.44 20.7026 179.758 19.0567 182.647 17.9146C185.536 16.7054 188.592 16.1008 191.817 16.1008C203.775 16.1008 209.754 22.5836 209.754 35.5494V61.548Z" fill="#B37FEB"/>
</svg>
